<?xml version="1.0" encoding="UTF-8"?><svg id="Layer_1" xmlns="http://www.w3.org/2000/svg" viewBox="0 0 2995.8 3139.95"><defs><style>.cls-1{fill:#504f57;}.cls-2{fill:#787f88;}.cls-3{fill:#355589;}.cls-4{fill:#0099da;}</style></defs><path class="cls-3" d="M1061.06,1327.71h-103.13v-103.13h103.13v103.13ZM911.23,1327.71h-103.13v-103.13h103.13v103.13ZM911.23,1374.41v103.13h-103.13v-103.13h103.13ZM1061.06,1374.41v103.13h-103.13v-103.13h103.13ZM934.58,1604.27l495.64,360.1c0-240.07,0-480.14,0-720.2l518.54-376.75-442.44-321.45L438.94,1321.45v642.91c383.82-278.86,211.79-153.87,495.63-360.1Z"/><path class="cls-2" d="M1430.21,2152.25l-495.63-360.09-495.63,360.09v403.9h558.93l-163.53-225.08-5.58,4.05c-33.92,24.65-53.61-9.31-76.78,7.51-1.76,1.28-3.3,2.56-4.63,3.84-21.63,20.68,10.34,40.29-20.6,62.76l-46.56,33.83c-15.98,11.61-38.57,8.03-50.18-7.94l-58.59-80.65c-11.61-15.98-8.04-38.57,7.95-50.18,4.58-3.33,47.73-34.74,47.83-34.71,33.13-21.96,39.35,19.65,69.87-2.5,23.85-17.32-2.74-41.58,25.85-66.73,1.51-1.33,3.18-2.66,5.01-3.99,44.95-32.65,90.27-67.16,135.87-98.6,140.76-96.79,307.08-22.49,378.06,75.21-113.5-50.65-198.31,6.1-288.85,71.87l210.25,289.39,15.93,21.93h251v-403.9Z"/><polygon class="cls-1" points="1506.31 358.09 2725.9 1244.16 2725.9 1056.28 1506.31 170.21 286.73 1056.28 286.73 1244.16 1506.31 358.09"/><rect class="cls-1" x="286.73" y="2708.44" width="2439.25" height="152.21"/><path class="cls-4" d="M1641.83,2543.48c-48.01-48.91-47.29-127.46,1.62-175.47l11.31-11.1,505.08-451.88c-26.01-75.94-8.29-163.45,52.81-223.43,60.63-59.52,147.57-75.83,222.62-49.29l-136.12,133.63,34.09,98.79,98.14,35.91,113.88-111.8v-462.52l-509.46-344.63-494.47,352.13v1220.92c1.67-1.99,43.22-3.18,108.53-3.79-2.75-2.36-5.45-4.82-8.03-7.46Z"/><path class="cls-4" d="M1541.33,2555.01v-.28c-.08.09-.1.19,0,.28Z"/><path class="cls-4" d="M2514.11,1988.68c-61.11,59.99-148.92,76.09-224.37,48.68l-461.14,496.65-11.3,11.1c-1.88,1.84-3.81,3.59-5.78,5.29,297.37.14,733.74,4.62,733.74,4.62v-604.9c-8.69,13.73-19.06,26.69-31.15,38.57Z"/><path class="cls-4" d="M1681.72,2406.99c-27.37,26.87-27.78,70.85-.91,98.23,26.87,27.37,70.85,27.78,98.23.91,27.37-26.87,27.78-70.85.91-98.23-26.87-27.37-70.85-27.78-98.23-.91Z"/></svg>