<?xml version="1.0" encoding="UTF-8"?><svg id="Layer_1" xmlns="http://www.w3.org/2000/svg" viewBox="0 0 4712.18 1856.04"><defs><style>.cls-1{fill:#504f57;}.cls-2{fill:#6d6e71;}.cls-3{fill:#005c8f;}.cls-4{fill:#0099da;}</style></defs><path class="cls-3" d="M540.83,791.96h-53v-53h53v53ZM463.83,791.96h-53v-53h53v53ZM463.83,815.96v53h-53v-53h53ZM540.83,815.96v53h-53v-53h53ZM475.82,934.1l254.74,185.08c0-123.39,0-246.77,0-370.15l266.51-193.64-227.4-165.22L221.09,788.74v330.43c197.27-143.32,108.85-79.08,254.74-185.08Z"/><path class="cls-2" d="M730.56,1215.74l-254.74-185.07-254.74,185.07v207.59h287.27l-84.05-115.68-2.87,2.08c-17.44,12.67-27.55-4.79-39.46,3.86-.9.66-1.69,1.31-2.38,1.97-11.12,10.63,5.31,20.71-10.59,32.26l-23.93,17.39c-8.21,5.96-19.82,4.13-25.79-4.08l-30.11-41.45c-5.97-8.21-4.13-19.82,4.08-25.79,2.36-1.71,24.53-17.86,24.58-17.84,17.03-11.29,20.23,10.1,35.91-1.29,12.26-8.9-1.41-21.37,13.28-34.3.78-.69,1.63-1.37,2.58-2.05,23.1-16.78,46.39-34.52,69.83-50.67,72.35-49.75,157.83-11.56,194.31,38.66-58.33-26.03-101.92,3.13-148.46,36.94l108.06,148.74,8.19,11.27h129v-207.59Z"/><polygon class="cls-1" points="769.68 293.61 1396.5 749.01 1396.5 652.45 769.68 197.04 142.86 652.45 142.86 749.01 769.68 293.61"/><rect class="cls-1" x="142.86" y="1501.6" width="1253.68" height="78.23"/><path class="cls-4" d="M839.33,1416.82c-24.68-25.14-24.3-65.51.83-90.18l5.81-5.7,259.59-232.25c-13.37-39.03-4.26-84,27.14-114.84,31.16-30.59,75.84-38.97,114.42-25.33l-69.96,68.68,17.52,50.77,50.44,18.46,58.53-57.46v-237.72l-261.84-177.13-254.14,180.98v627.51c.86-1.03,22.21-1.63,55.78-1.95-1.42-1.21-2.8-2.48-4.13-3.83Z"/><path class="cls-4" d="M787.67,1422.74v-.15s-.05.1,0,.15Z"/><path class="cls-4" d="M1287.65,1131.67c-31.41,30.83-76.54,39.11-115.32,25.02l-237.01,255.26-5.81,5.7c-.97.95-1.96,1.85-2.97,2.72,152.84.07,377.11,2.37,377.11,2.37v-310.9c-4.47,7.06-9.8,13.72-16.01,19.82Z"/><path class="cls-4" d="M859.83,1346.67c-14.07,13.81-14.28,36.42-.47,50.48,13.81,14.07,36.42,14.28,50.48.47,14.07-13.81,14.28-36.41.47-50.48-13.81-14.07-36.41-14.28-50.48-.47Z"/><path class="cls-1" d="M1544.19,1166.14v-448.7h180.12c46.57,0,82.15,10.8,106.73,32.37,24.57,21.58,36.86,49.25,36.86,83.01,0,28.2-7.59,50.75-22.76,67.62-15.17,16.89-33.65,28.31-55.45,34.29,25.64,5.13,46.79,17.85,63.46,38.14,16.67,20.3,25,43.91,25,70.83,0,35.47-12.82,64.74-38.46,87.82-25.64,23.07-61.97,34.61-108.97,34.61h-186.53ZM1626.23,905.89h85.89c23.08,0,40.8-5.34,53.2-16.02,12.39-10.68,18.59-25.85,18.59-45.51s-6.09-33.65-18.27-44.55c-12.18-10.9-30.45-16.35-54.8-16.35h-84.61v122.43ZM1626.23,1099.47h91.66c24.36,0,43.27-5.66,56.73-16.99,13.46-11.32,20.19-27.24,20.19-47.76s-7.05-37.39-21.15-49.36c-14.1-11.96-33.12-17.95-57.05-17.95h-90.38v132.05Z"/><path class="cls-1" d="M1948.65,1166.14v-448.7h164.74c35.89,0,65.48,6.09,88.78,18.27,23.29,12.18,40.7,28.64,52.24,49.36,11.54,20.73,17.31,43.7,17.31,68.91,0,27.35-7.16,52.35-21.47,75-14.32,22.66-36.65,39.1-66.98,49.36l92.95,187.81h-94.23l-83.33-176.92h-67.94v176.92h-82.05ZM2030.7,928.97h77.56c27.34,0,47.43-6.62,60.25-19.87,12.82-13.24,19.23-30.77,19.23-52.56s-6.31-38.46-18.91-51.28c-12.61-12.82-33.01-19.23-61.22-19.23h-76.92v142.94Z"/><path class="cls-1" d="M2319.15,1166.14l164.09-448.7h92.3l164.09,448.7h-87.18l-35.89-103.84h-174.99l-36.54,103.84h-85.89ZM2464.01,998.2h130.12l-65.38-186.53-64.74,186.53Z"/><path class="cls-1" d="M2797.32,1166.14v-448.7h82.05l210.89,316.01v-316.01h82.05v448.7h-82.05l-210.89-315.37v315.37h-82.05Z"/><path class="cls-1" d="M3259.48,1166.14v-448.7h153.2c52.56,0,95.83,9.29,129.8,27.88,33.97,18.59,59.18,44.66,75.64,78.2,16.44,33.55,24.68,72.97,24.68,118.27s-8.23,84.72-24.68,118.27c-16.46,33.55-41.67,59.61-75.64,78.2-33.97,18.59-77.24,27.88-129.8,27.88h-153.2ZM3341.52,1095.63h67.3c37.6,0,67.3-6.09,89.1-18.27,21.79-12.18,37.39-29.7,46.79-52.56,9.39-22.86,14.1-50.53,14.1-83.01s-4.71-59.61-14.1-82.69c-9.4-23.08-25-40.8-46.79-53.2-21.8-12.39-51.5-18.59-89.1-18.59h-67.3v308.32Z"/><path class="cls-1" d="M3657.54,1166.14l164.09-448.7h92.3l164.09,448.7h-87.18l-35.89-103.84h-174.99l-36.54,103.84h-85.89ZM3802.4,998.2h130.12l-65.38-186.53-64.74,186.53Z"/><path class="cls-1" d="M4289.56,1173.83c-32.91,0-62.61-6.52-89.1-19.55-26.5-13.03-47.55-32.79-63.14-59.29-15.6-26.49-23.4-60.04-23.4-100.64v-276.91h82.05v277.55c0,35.05,8.43,61.11,25.32,78.2,16.87,17.09,40.27,25.64,70.19,25.64s52.77-8.54,69.87-25.64c17.09-17.09,25.64-43.16,25.64-78.2v-277.55h82.05v276.91c0,40.6-8.12,74.14-24.36,100.64-16.24,26.5-37.93,46.26-65.06,59.29-27.14,13.03-57.16,19.55-90.06,19.55Z"/><path class="cls-1" d="M1547.6,1578.36v-220.29h40.28v91.58h98.81v-91.58h40.28v220.29h-40.28v-95.98h-98.81v95.98h-40.28Z"/><path class="cls-1" d="M1913.9,1582.13c-22.03,0-41.28-4.82-57.75-14.48-16.47-9.65-29.37-23.02-38.71-40.12-9.34-17.1-14-36.87-14-59.32s4.67-42.22,14-59.32c9.33-17.1,22.24-30.47,38.71-40.12,16.47-9.65,35.72-14.48,57.75-14.48s41.01,4.83,57.59,14.48c16.57,9.65,29.47,23.03,38.71,40.12,9.23,17.1,13.85,36.87,13.85,59.32s-4.62,42.22-13.85,59.32c-9.23,17.1-22.14,30.48-38.71,40.12-16.58,9.65-35.77,14.48-57.59,14.48ZM1913.9,1545.94c20.98,0,37.71-6.92,50.19-20.77,12.48-13.85,18.72-32.83,18.72-56.96s-6.24-43.11-18.72-56.96c-12.48-13.85-29.22-20.77-50.19-20.77s-37.76,6.92-50.35,20.77c-12.59,13.85-18.88,32.84-18.88,56.96s6.29,43.11,18.88,56.96c12.59,13.85,29.37,20.77,50.35,20.77Z"/><path class="cls-1" d="M2100.51,1578.36v-220.29h47.83l70.18,139.72,69.23-139.72h47.83v220.29h-40.28v-152l-61.37,120.53h-31.78l-61.37-120.53v152h-40.28Z"/><path class="cls-1" d="M2419.3,1578.36v-220.29h143.82v32.41h-103.54v60.42h94.09v31.47h-94.09v63.57h103.54v32.41h-143.82Z"/><path class="cls-1" d="M2833.11,1582.13c-16.16,0-30.42-2.78-42.8-8.34-12.38-5.55-22.14-13.53-29.27-23.92-7.13-10.38-10.81-23.02-11.01-37.92h42.48c.42,10.28,4.14,18.93,11.17,25.96,7.03,7.03,16.73,10.54,29.11,10.54,10.7,0,19.2-2.57,25.49-7.71,6.29-5.14,9.44-12.01,9.44-20.61s-2.78-16.05-8.34-21.09c-5.56-5.03-12.96-9.13-22.19-12.27-9.23-3.15-19.09-6.5-29.58-10.07-16.99-5.87-29.95-13.42-38.87-22.66-8.92-9.23-13.37-21.5-13.37-36.82-.21-13.01,2.88-24.18,9.28-33.52,6.4-9.33,15.15-16.57,26.28-21.71,11.12-5.14,23.92-7.71,38.39-7.71s27.64,2.63,38.86,7.87c11.22,5.25,20.03,12.59,26.43,22.03,6.4,9.44,9.8,20.67,10.23,33.67h-43.11c-.21-7.76-3.2-14.63-8.97-20.61-5.77-5.98-13.8-8.97-24.07-8.97-8.81-.21-16.21,1.94-22.19,6.45-5.98,4.51-8.97,11.07-8.97,19.67,0,7.35,2.31,13.17,6.92,17.47,4.61,4.3,10.91,7.92,18.88,10.86,7.97,2.94,17.1,6.09,27.38,9.44,10.91,3.78,20.87,8.18,29.9,13.22,9.02,5.04,16.26,11.7,21.71,19.98,5.45,8.29,8.18,18.94,8.18,31.94,0,11.54-2.94,22.24-8.81,32.1-5.88,9.86-14.58,17.78-26.12,23.76-11.54,5.98-25.7,8.97-42.48,8.97Z"/><path class="cls-1" d="M2986.68,1578.36v-220.29h143.82v32.41h-103.54v60.42h94.09v31.47h-94.09v63.57h103.54v32.41h-143.82Z"/><path class="cls-1" d="M3209.48,1578.36v-220.29h80.88c17.62,0,32.15,2.99,43.59,8.97,11.43,5.98,19.98,14.06,25.65,24.23,5.66,10.18,8.5,21.45,8.5,33.83,0,13.43-3.52,25.7-10.54,36.82-7.03,11.12-17.99,19.2-32.89,24.23l45.63,92.21h-46.26l-40.91-86.86h-33.36v86.86h-40.28ZM3249.76,1461.92h38.08c13.42,0,23.29-3.25,29.58-9.76,6.3-6.5,9.44-15.1,9.44-25.81s-3.1-18.88-9.28-25.18c-6.19-6.29-16.21-9.44-30.05-9.44h-37.76v70.18Z"/><path class="cls-1" d="M3502.78,1578.36l-80.56-220.29h43.11l62.31,179.06,62.62-179.06h42.48l-80.56,220.29h-49.41Z"/><path class="cls-1" d="M3699.77,1578.36v-220.29h40.28v220.29h-40.28Z"/><path class="cls-1" d="M3923.52,1582.13c-22.24,0-41.33-4.77-57.28-14.32-15.95-9.54-28.22-22.86-36.82-39.97-8.6-17.1-12.9-36.87-12.9-59.32s4.3-42.27,12.9-59.48c8.6-17.2,20.87-30.63,36.82-40.28,15.94-9.65,35.03-14.48,57.28-14.48,26.43,0,48.1,6.56,64.98,19.67,16.89,13.11,27.43,31.52,31.63,55.23h-44.37c-2.73-11.96-8.55-21.35-17.47-28.17-8.92-6.81-20.72-10.23-35.4-10.23-20.35,0-36.3,6.92-47.83,20.77-11.54,13.85-17.31,32.84-17.31,56.96s5.77,43.06,17.31,56.8c11.54,13.74,27.48,20.61,47.83,20.61,14.68,0,26.48-3.2,35.4-9.6,8.92-6.4,14.74-15.26,17.47-26.59h44.37c-4.2,22.66-14.74,40.39-31.63,53.18-16.89,12.8-38.55,19.2-64.98,19.2Z"/><path class="cls-1" d="M4096.6,1578.36v-220.29h143.81v32.41h-103.53v60.42h94.09v31.47h-94.09v63.57h103.53v32.41h-143.81Z"/><path class="cls-1" d="M4394.62,1582.13c-16.16,0-30.42-2.78-42.8-8.34-12.38-5.55-22.14-13.53-29.27-23.92-7.13-10.38-10.81-23.02-11.01-37.92h42.48c.42,10.28,4.14,18.93,11.17,25.96,7.03,7.03,16.73,10.54,29.11,10.54,10.7,0,19.2-2.57,25.49-7.71,6.3-5.14,9.44-12.01,9.44-20.61s-2.79-16.05-8.34-21.09c-5.56-5.03-12.96-9.13-22.18-12.27-9.23-3.15-19.1-6.5-29.58-10.07-16.99-5.87-29.95-13.42-38.86-22.66-8.92-9.23-13.38-21.5-13.38-36.82-.21-13.01,2.88-24.18,9.28-33.52,6.4-9.33,15.15-16.57,26.28-21.71,11.12-5.14,23.92-7.71,38.4-7.71s27.64,2.63,38.86,7.87c11.22,5.25,20.03,12.59,26.43,22.03,6.4,9.44,9.8,20.67,10.23,33.67h-43.11c-.21-7.76-3.2-14.63-8.97-20.61-5.77-5.98-13.8-8.97-24.07-8.97-8.81-.21-16.21,1.94-22.19,6.45-5.98,4.51-8.97,11.07-8.97,19.67,0,7.35,2.3,13.17,6.92,17.47,4.61,4.3,10.91,7.92,18.88,10.86,7.97,2.94,17.1,6.09,27.38,9.44,10.91,3.78,20.87,8.18,29.9,13.22,9.02,5.04,16.25,11.7,21.71,19.98,5.45,8.29,8.18,18.94,8.18,31.94,0,11.54-2.94,22.24-8.81,32.1-5.87,9.86-14.58,17.78-26.12,23.76-11.54,5.98-25.7,8.97-42.48,8.97Z"/></svg>